HIERARCHY
ROOT Hips
{
    OFFSET 0.000000 0.000000 0.000000
    CHANNELS 6 Xposition Yposition Zposition Zrotation Xrotation Yrotation
    JOINT Spine
    {
        OFFSET -0.000000 0.079523 0.000000
        CHANNELS 3 Zrotation Xrotation Yrotation
        JOINT Spine1
        {
            OFFSET -0.000000 0.192445 0.000000
            CHANNELS 3 Zrotation Xrotation Yrotation
            JOINT Neck
            {
                OFFSET -0.000000 0.191655 0.017423
                CHANNELS 3 Zrotation Xrotation Yrotation
                JOINT Head
                {
                    OFFSET -0.000000 0.135771 -0.019396
                    CHANNELS 3 Zrotation Xrotation Yrotation
                    End Site
                    {
                        OFFSET -0.000000 0.242449 0.000000
                    }
                }
            }
            JOINT LeftShoulder
            {
                OFFSET 0.039141 0.175231 -0.001157
                CHANNELS 3 Zrotation Xrotation Yrotation
                JOINT LeftArm
                {
                    OFFSET 0.104248 0.000000 0.000000
                    CHANNELS 3 Zrotation Xrotation Yrotation
                    JOINT LeftForeArm
                    {
                        OFFSET 0.307569 0.000000 0.000000
                        CHANNELS 3 Zrotation Xrotation Yrotation
                        JOINT LeftHand
                        {
                            OFFSET 0.230447 0.000000 0.000000
                            CHANNELS 3 Zrotation Xrotation Yrotation
                            End Site
                            {
                                OFFSET 0.145469 0.000000 0.000000
                            }
                        }
                    }
                }
            }
            JOINT RightShoulder
            {
                OFFSET -0.038425 0.175231 -0.001157
                CHANNELS 3 Zrotation Xrotation Yrotation
                JOINT RightArm
                {
                    OFFSET -0.104248 0.000000 0.000000
                    CHANNELS 3 Zrotation Xrotation Yrotation
                    JOINT RightForeArm
                    {
                        OFFSET -0.307569 0.000000 0.000000
                        CHANNELS 3 Zrotation Xrotation Yrotation
                        JOINT RightHand
                        {
                            OFFSET -0.230447 0.000000 0.000000
                            CHANNELS 3 Zrotation Xrotation Yrotation
                            End Site
                            {
                                OFFSET -0.145469 0.000000 0.000000
                            }
                        }
                    }
                }
            }
        }
    }
    JOINT LeftUpLeg
    {
        OFFSET 0.096979 0.000000 0.000000
        CHANNELS 3 Zrotation Xrotation Yrotation
        JOINT LeftLeg
        {
            OFFSET -0.000000 -0.427459 0.000000
            CHANNELS 3 Zrotation Xrotation Yrotation
            JOINT LeftFoot
            {
                OFFSET -0.000000 -0.447558 0.000000
                CHANNELS 3 Zrotation Xrotation Yrotation
                JOINT LeftToeBase
                {
                    OFFSET -0.000000 -0.063037 0.145469
                    CHANNELS 3 Zrotation Xrotation Yrotation
                    End Site
                    {
                        OFFSET -0.000000 0.000000 0.038792
                    }
                }
            }
        }
    }
    JOINT RightUpLeg
    {
        OFFSET -0.096979 0.000000 0.000000
        CHANNELS 3 Zrotation Xrotation Yrotation
        JOINT RightLeg
        {
            OFFSET -0.000000 -0.427459 0.000000
            CHANNELS 3 Zrotation Xrotation Yrotation
            JOINT RightFoot
            {
                OFFSET -0.000000 -0.447558 0.000000
                CHANNELS 3 Zrotation Xrotation Yrotation
                JOINT RightToeBase
                {
                    OFFSET -0.000000 -0.063037 0.145469
                    CHANNELS 3 Zrotation Xrotation Yrotation
                    End Site
                    {
                        OFFSET -0.000000 0.000000 0.038792
                    }
                }
            }
        }
    }
}
MOTION
Frames:    10
Frame Time:    0.008333
-0.551543    0.917543    0.642372    -0.418069    -3.613899    -150.338104    4.420671    -7.430625    3.032224    0.176709    9.153168    2.725773    0.857211    11.856817    0.034225    6.544222    21.389067    -0.204107    3.744775    12.578576    13.058619    -77.213028    26.767437    -0.923032    -5.790607    2.077589    -39.462688    -4.307398    21.313522    15.944938    4.135568    11.625041    -8.003726    68.658775    30.045515    4.717417    -18.741594    -9.640100    54.146923    -2.553956    -8.163967    -18.154314    -1.060843    -19.294645    -3.098206    0.587427    9.188365    2.897474    -6.858769    5.871706    -1.343240    0.000000    0.000000    0.000000    -4.362262    -1.669391    25.681480    7.059414    14.490395    11.917828    -1.307627    -14.797993    -15.982648    0.000000    0.000000    0.000000    
-0.556000    0.916858    0.638741    -0.439861    -3.565727    -150.886276    4.420494    -7.536844    3.117870    0.037999    9.234794    2.818355    1.150222    12.015866    0.044215    6.152256    20.991106    0.191092    3.800322    12.607063    13.117187    -77.440727    26.866201    -0.660366    -5.568619    1.969111    -38.937885    -5.349022    21.432940    16.322060    4.175929    11.445437    -7.834126    68.886375    30.331224    4.314524    -19.141491    -9.922286    54.495453    -2.346866    -8.305713    -18.236431    -1.097975    -18.855307    -3.622064    0.603526    9.065303    3.999459    -6.220293    6.233548    -1.681886    0.000000    0.000000    0.000000    -4.443608    -1.714936    25.677956    7.183741    15.177805    12.150156    -1.307219    -15.113187    -15.711219    0.000000    0.000000    0.000000    
-0.560446    0.916084    0.635044    -0.454454    -3.507619    -151.440140    4.420200    -7.678200    3.193784    -0.067474    9.365015    2.897342    1.214169    12.076266    0.046023    6.057944    20.918694    0.324320    3.794672    12.618482    13.122733    -77.590454    26.803852    -0.371875    -5.668452    1.986515    -38.613838    -5.303880    21.335068    16.396820    4.163341    11.454828    -7.763288    68.998032    30.419960    4.268762    -19.188913    -10.015679    54.817497    -2.412399    -8.185411    -18.226881    -1.129532    -18.514328    -3.135238    0.747273    9.134207    4.539239    -5.324448    6.398399    -2.293153    0.000000    0.000000    0.000000    -4.519285    -1.795057    25.821753    7.260261    15.899565    12.149386    -1.167277    -15.448501    -15.064569    0.000000    0.000000    0.000000    
-0.564848    0.915371    0.631442    -0.438296    -3.460421    -151.982132    4.438144    -7.770019    3.235701    -0.208589    9.381126    2.945928    1.172947    12.130150    0.043905    6.177557    21.077906    0.263980    3.801636    12.615956    13.225914    -77.709763    26.685772    -0.067645    -5.818905    2.015780    -38.199619    -5.373478    21.549101    16.373327    4.217306    11.522900    -7.730295    68.991203    30.629889    4.316478    -19.310078    -10.126771    55.036495    -2.139085    -8.102123    -18.243637    -1.160748    -18.217070    -2.748899    0.886740    9.231679    5.066968    -4.666725    6.482237    -2.554245    0.000000    0.000000    0.000000    -4.538241    -1.923554    25.737906    7.475806    16.725399    11.892274    -1.134483    -15.726731    -14.521123    0.000000    0.000000    0.000000    
-0.568960    0.914447    0.627851    -0.262809    -3.505574    -152.659698    4.575938    -8.061482    3.330799    -0.489621    9.529693    3.043081    1.422014    11.990426    0.054957    6.072454    21.332262    0.394381    3.968720    12.548761    13.498202    -77.883820    26.518150    0.190503    -6.056578    2.075234    -37.808327    -5.552104    21.874151    16.513809    4.422609    11.491930    -7.634638    68.921616    31.005373    4.349652    -19.521795    -10.257192    55.118446    -2.377254    -8.241657    -18.217546    -1.088860    -18.060637    -2.147883    1.124570    9.323243    5.138116    -4.613411    6.128633    -2.303579    0.000000    0.000000    0.000000    -4.532605    -2.529469    27.195963    8.408664    17.784496    11.645839    -1.476635    -15.944496    -15.261313    0.000000    0.000000    0.000000    
-0.573264    0.913953    0.624348    -0.238655    -3.436459    -153.184189    4.540821    -8.116291    3.373008    -0.422251    9.514186    3.080041    1.427035    12.244695    0.051921    5.873851    20.980244    0.825914    3.759063    12.592097    13.456156    -77.911934    26.603310    0.363102    -5.887136    1.991316    -37.359116    -5.867944    21.603163    16.141922    4.298781    11.587843    -7.694406    68.938011    30.881527    4.542264    -19.153400    -10.099251    55.298195    -2.580709    -7.936310    -18.108900    -1.099795    -17.763012    -2.241043    1.137497    9.580680    5.280335    -4.189489    5.250953    -1.898852    0.000000    0.000000    0.000000    -4.483252    -2.710676    27.035801    8.470037    18.750103    11.647925    -1.256528    -16.138401    -14.670831    0.000000    0.000000    0.000000    
-0.577436    0.913633    0.621003    -0.222032    -3.365421    -153.678833    4.547693    -8.152334    3.373408    -0.540150    9.559748    3.088327    1.471481    12.223637    0.053806    5.822665    21.122181    0.985406    3.693682    12.568835    13.606534    -77.890312    26.517403    0.430440    -6.067741    2.023904    -36.873417    -5.793661    21.777037    16.043844    4.245974    11.583372    -7.663429    69.094543    31.315712    4.613535    -19.559057    -10.271135    55.091110    -2.191180    -8.322999    -18.062849    -1.094034    -17.384354    -3.094540    0.965321    9.730330    6.153707    -3.473972    4.204506    -1.715985    0.000000    0.000000    0.000000    -4.512310    -2.857294    27.101461    8.657452    19.633663    11.842063    -1.130400    -16.278616    -14.510443    0.000000    0.000000    0.000000    
-0.581459    0.913520    0.617740    -0.177809    -3.293353    -154.110550    4.543689    -8.167173    3.351961    -0.600330    9.561644    3.071501    1.303307    12.161060    0.048427    6.073927    21.539738    0.823684    3.614254    12.535155    13.702400    -77.901115    26.559130    0.456718    -6.063895    1.989202    -36.304455    -5.720973    21.781204    15.808524    4.294794    11.649785    -7.761053    69.021446    31.335920    4.901732    -19.333227    -10.127010    54.980167    -2.260032    -8.021108    -17.914030    -1.017364    -17.070118    -3.475600    0.787629    9.965697    6.295333    -3.142103    3.179898    -1.177284    0.000000    0.000000    0.000000    -4.441767    -3.121302    27.470140    8.984308    20.620062    11.277119    -0.862413    -16.292568    -14.013284    0.000000    0.000000    0.000000    
-0.585368    0.913649    0.614617    -0.165348    -3.253128    -154.534546    4.489575    -8.174272    3.305280    -0.660771    9.559749    3.033547    1.269382    12.277162    0.045860    6.039370    21.424055    1.121037    3.509386    12.567634    13.890205    -77.891617    26.821087    0.336825    -5.828095    1.880926    -35.756943    -5.657983    21.567616    15.548325    4.297872    11.594448    -7.775606    69.046730    31.411116    5.070184    -19.096613    -9.951574    54.745285    -2.682701    -7.800682    -17.722603    -0.947880    -16.724682    -3.683451    0.603853    10.053995    6.661356    -3.334518    2.480232    -0.856157    0.000000    0.000000    0.000000    -4.371317    -3.493790    27.235960    9.091483    21.866301    11.331667    -0.499187    -16.237335    -13.512088    0.000000    0.000000    0.000000    
-0.589193    0.914064    0.611579    -0.176406    -3.237467    -154.888489    4.442869    -8.197511    3.232698    -0.876034    9.590049    2.981502    1.464121    12.306602    0.052484    5.870179    21.371727    1.436250    3.565797    12.554772    14.083645    -77.821739    26.660240    0.154417    -6.111568    1.937876    -35.165710    -5.039935    21.924160    15.462140    4.487205    11.596023    -7.823409    69.000977    31.505331    5.307142    -19.085987    -9.875450    54.411373    -2.489621    -7.868764    -17.649157    -0.893331    -16.360109    -3.696544    0.427304    10.013400    7.259698    -3.544955    2.081004    -1.103899    0.000000    0.000000    0.000000    -4.357851    -3.906791    27.060083    9.312215    23.112343    11.144511    -0.066133    -16.056602    -12.929918    0.000000    0.000000    0.000000    
